<mxfile host="app.diagrams.net" modified="2023-08-25T16:19:46.205Z" agent="Mozilla/5.0 (X11; Linux x86_64; rv:109.0) Gecko/20100101 Firefox/112.0" etag="rxRouaFbQYueLma4aHrc" version="21.6.9" type="github">
  <diagram id="R2lEEEUBdFMjLlhIrx00" name="Page-1">
    <mxGraphModel dx="1434" dy="767" grid="1" gridSize="10" guides="1" tooltips="1" connect="1" arrows="1" fold="1" page="1" pageScale="1" pageWidth="850" pageHeight="1100" math="0" shadow="0" extFonts="Permanent Marker^https://fonts.googleapis.com/css?family=Permanent+Marker">
      <root>
        <mxCell id="0" />
        <mxCell id="1" parent="0" />
        <mxCell id="e9rtQwf8UK-cS9ZiglFW-7" value="" style="edgeStyle=orthogonalEdgeStyle;rounded=0;orthogonalLoop=1;jettySize=auto;html=1;" edge="1" parent="1" source="e9rtQwf8UK-cS9ZiglFW-1" target="e9rtQwf8UK-cS9ZiglFW-6">
          <mxGeometry relative="1" as="geometry" />
        </mxCell>
        <mxCell id="e9rtQwf8UK-cS9ZiglFW-1" value="VENDEDOR" style="swimlane;childLayout=stackLayout;horizontal=1;startSize=50;horizontalStack=0;rounded=1;fontSize=14;fontStyle=0;strokeWidth=2;resizeParent=0;resizeLast=1;shadow=0;dashed=0;align=center;arcSize=4;whiteSpace=wrap;html=1;" vertex="1" parent="1">
          <mxGeometry x="560" y="40" width="160" height="120" as="geometry" />
        </mxCell>
        <mxCell id="e9rtQwf8UK-cS9ZiglFW-2" value="&lt;div&gt;CÓDIGO&lt;/div&gt;&lt;div&gt;NOME&lt;/div&gt;&lt;div&gt;ENDEREÇO&lt;/div&gt;&lt;div&gt;COMISSÃO&lt;br&gt;&lt;/div&gt;" style="align=left;strokeColor=none;fillColor=none;spacingLeft=4;fontSize=12;verticalAlign=top;resizable=0;rotatable=0;part=1;html=1;" vertex="1" parent="e9rtQwf8UK-cS9ZiglFW-1">
          <mxGeometry y="50" width="160" height="70" as="geometry" />
        </mxCell>
        <mxCell id="e9rtQwf8UK-cS9ZiglFW-14" style="edgeStyle=orthogonalEdgeStyle;rounded=0;orthogonalLoop=1;jettySize=auto;html=1;exitX=0.5;exitY=1;exitDx=0;exitDy=0;" edge="1" parent="1" source="e9rtQwf8UK-cS9ZiglFW-6" target="e9rtQwf8UK-cS9ZiglFW-8">
          <mxGeometry relative="1" as="geometry" />
        </mxCell>
        <mxCell id="e9rtQwf8UK-cS9ZiglFW-16" style="edgeStyle=orthogonalEdgeStyle;rounded=0;orthogonalLoop=1;jettySize=auto;html=1;exitX=1;exitY=0;exitDx=0;exitDy=0;" edge="1" parent="1" source="e9rtQwf8UK-cS9ZiglFW-6">
          <mxGeometry relative="1" as="geometry">
            <mxPoint x="730" y="270" as="targetPoint" />
          </mxGeometry>
        </mxCell>
        <mxCell id="e9rtQwf8UK-cS9ZiglFW-6" value="ATENDER" style="rhombus;whiteSpace=wrap;html=1;fontSize=14;fontStyle=0;startSize=50;rounded=1;strokeWidth=2;shadow=0;dashed=0;arcSize=4;" vertex="1" parent="1">
          <mxGeometry x="600" y="270" width="80" height="70" as="geometry" />
        </mxCell>
        <mxCell id="e9rtQwf8UK-cS9ZiglFW-8" value="CLIENTE" style="swimlane;childLayout=stackLayout;horizontal=1;startSize=50;horizontalStack=0;rounded=1;fontSize=14;fontStyle=0;strokeWidth=2;resizeParent=0;resizeLast=1;shadow=0;dashed=0;align=center;arcSize=4;whiteSpace=wrap;html=1;" vertex="1" parent="1">
          <mxGeometry x="560" y="400" width="160" height="130" as="geometry" />
        </mxCell>
        <mxCell id="e9rtQwf8UK-cS9ZiglFW-9" value="&lt;div&gt;CÓDIGO&lt;/div&gt;&lt;div&gt;NOME&lt;/div&gt;&lt;div&gt;ENDEREÇO&lt;/div&gt;&lt;div&gt;F.ACUMULADO&lt;/div&gt;&lt;div&gt;L. DE CONTEÚDOS&lt;br&gt;&lt;/div&gt;" style="align=left;strokeColor=none;fillColor=none;spacingLeft=4;fontSize=12;verticalAlign=top;resizable=0;rotatable=0;part=1;html=1;" vertex="1" parent="e9rtQwf8UK-cS9ZiglFW-8">
          <mxGeometry y="50" width="160" height="80" as="geometry" />
        </mxCell>
        <mxCell id="e9rtQwf8UK-cS9ZiglFW-10" value="PEÇA" style="swimlane;childLayout=stackLayout;horizontal=1;startSize=50;horizontalStack=0;rounded=1;fontSize=14;fontStyle=0;strokeWidth=2;resizeParent=0;resizeLast=1;shadow=0;dashed=0;align=center;arcSize=4;whiteSpace=wrap;html=1;" vertex="1" parent="1">
          <mxGeometry x="150" y="160" width="160" height="120" as="geometry" />
        </mxCell>
        <mxCell id="e9rtQwf8UK-cS9ZiglFW-11" value="&lt;div&gt;CÓDIGO&lt;/div&gt;&lt;div&gt;DESCRIÇÃO&lt;/div&gt;&lt;div&gt;PREÇO&lt;/div&gt;&lt;div&gt;QUANTIDADE&lt;br&gt;&lt;/div&gt;" style="align=left;strokeColor=none;fillColor=none;spacingLeft=4;fontSize=12;verticalAlign=top;resizable=0;rotatable=0;part=1;html=1;" vertex="1" parent="e9rtQwf8UK-cS9ZiglFW-10">
          <mxGeometry y="50" width="160" height="70" as="geometry" />
        </mxCell>
        <mxCell id="e9rtQwf8UK-cS9ZiglFW-17" value="DATA" style="rounded=0;whiteSpace=wrap;html=1;" vertex="1" parent="1">
          <mxGeometry x="730" y="230" width="100" height="60" as="geometry" />
        </mxCell>
        <mxCell id="e9rtQwf8UK-cS9ZiglFW-20" style="edgeStyle=orthogonalEdgeStyle;rounded=0;orthogonalLoop=1;jettySize=auto;html=1;exitX=0;exitY=0.5;exitDx=0;exitDy=0;entryX=1.019;entryY=0.067;entryDx=0;entryDy=0;entryPerimeter=0;" edge="1" parent="1" source="e9rtQwf8UK-cS9ZiglFW-18" target="e9rtQwf8UK-cS9ZiglFW-10">
          <mxGeometry relative="1" as="geometry" />
        </mxCell>
        <mxCell id="e9rtQwf8UK-cS9ZiglFW-18" value="TER" style="rhombus;whiteSpace=wrap;html=1;" vertex="1" parent="1">
          <mxGeometry x="370" y="80" width="80" height="80" as="geometry" />
        </mxCell>
        <mxCell id="e9rtQwf8UK-cS9ZiglFW-19" style="edgeStyle=orthogonalEdgeStyle;rounded=0;orthogonalLoop=1;jettySize=auto;html=1;exitX=0;exitY=0.25;exitDx=0;exitDy=0;" edge="1" parent="1" source="e9rtQwf8UK-cS9ZiglFW-2" target="e9rtQwf8UK-cS9ZiglFW-18">
          <mxGeometry relative="1" as="geometry" />
        </mxCell>
        <mxCell id="e9rtQwf8UK-cS9ZiglFW-21" value="N" style="text;html=1;align=center;verticalAlign=middle;resizable=0;points=[];autosize=1;strokeColor=none;fillColor=none;" vertex="1" parent="1">
          <mxGeometry x="525" y="118" width="30" height="30" as="geometry" />
        </mxCell>
        <mxCell id="e9rtQwf8UK-cS9ZiglFW-22" value="N" style="text;html=1;align=center;verticalAlign=middle;resizable=0;points=[];autosize=1;strokeColor=none;fillColor=none;" vertex="1" parent="1">
          <mxGeometry x="335" y="138" width="30" height="30" as="geometry" />
        </mxCell>
        <mxCell id="e9rtQwf8UK-cS9ZiglFW-24" value="N" style="text;html=1;align=center;verticalAlign=middle;resizable=0;points=[];autosize=1;strokeColor=none;fillColor=none;" vertex="1" parent="1">
          <mxGeometry x="645" y="368" width="30" height="30" as="geometry" />
        </mxCell>
        <mxCell id="e9rtQwf8UK-cS9ZiglFW-25" value="1" style="text;html=1;align=center;verticalAlign=middle;resizable=0;points=[];autosize=1;strokeColor=none;fillColor=none;" vertex="1" parent="1">
          <mxGeometry x="635" y="178" width="30" height="30" as="geometry" />
        </mxCell>
      </root>
    </mxGraphModel>
  </diagram>
</mxfile>
